<svg width="22" height="22" viewBox="0 0 22 22" fill="none" xmlns="http://www.w3.org/2000/svg">
<path d="M11 0.166664C8.85733 0.166664 6.76282 0.802028 4.98129 1.99241C3.19975 3.18279 1.81122 4.87473 0.991269 6.85426C0.17132 8.83379 -0.0432162 11.012 0.37479 13.1135C0.792797 15.2149 1.82457 17.1453 3.33964 18.6603C4.85471 20.1754 6.78503 21.2072 8.88649 21.6252C10.9879 22.0432 13.1662 21.8286 15.1457 21.0087C17.1252 20.1887 18.8172 18.8002 20.0076 17.0187C21.1979 15.2371 21.8333 13.1426 21.8333 11C21.8333 9.57734 21.5531 8.16862 21.0087 6.85426C20.4642 5.5399 19.6663 4.34564 18.6603 3.33967C17.6543 2.33371 16.4601 1.53573 15.1457 0.991303C13.8313 0.446877 12.4226 0.166664 11 0.166664ZM17.5 9.91666H12.0833L14.0441 7.95583C13.6479 7.54932 13.1746 7.22592 12.6519 7.00456C12.1292 6.7832 11.5676 6.66833 11 6.66666C10.1889 6.66403 9.39336 6.88908 8.70387 7.31621C8.01437 7.74335 7.4586 8.35541 7.09975 9.08279C6.74091 9.81016 6.59341 10.6237 6.67403 11.4307C6.75465 12.2378 7.06016 13.006 7.5558 13.648C8.05143 14.29 8.71731 14.7801 9.47767 15.0624C10.238 15.3447 11.0624 15.4079 11.8569 15.2449C12.6514 15.0819 13.3842 14.6991 13.972 14.1402C14.5598 13.5813 14.9789 12.8687 15.1816 12.0833H17.4025C17.1959 13.3055 16.6441 14.4432 15.8123 15.3622C14.9804 16.2811 13.9031 16.943 12.7074 17.2699C11.5118 17.5968 10.2476 17.575 9.0639 17.207C7.88023 16.8391 6.82644 16.1403 6.02679 15.1932C5.22715 14.2461 4.715 13.0901 4.55072 11.8615C4.38644 10.6328 4.57688 9.38287 5.0996 8.25893C5.62232 7.135 6.45551 6.18395 7.50094 5.51795C8.54636 4.85194 9.76042 4.49874 11 4.5C11.852 4.50107 12.6952 4.67218 13.4802 5.0033C14.2652 5.33442 14.9762 5.8189 15.5716 6.42833L17.5 4.5V9.91666Z" fill="white"/>
</svg>
