<svg width="46" height="46" viewBox="0 0 46 46" fill="none" xmlns="http://www.w3.org/2000/svg">
<path d="M21.4006 1.63662V4.47119C21.4006 4.84708 21.5499 5.20757 21.8157 5.47336C22.0815 5.73915 22.442 5.88847 22.8178 5.88847C23.1937 5.88847 23.5542 5.73915 23.82 5.47336C24.0858 5.20757 24.2351 4.84708 24.2351 4.47119V1.63662C24.2351 1.26073 24.0858 0.900236 23.82 0.634444C23.5542 0.368651 23.1937 0.21933 22.8178 0.21933C22.442 0.21933 22.0815 0.368651 21.8157 0.634444C21.5499 0.900236 21.4006 1.26073 21.4006 1.63662ZM22.8178 8.72305C20.5625 8.72305 18.3996 9.61897 16.8048 11.2137C15.2101 12.8085 14.3141 14.9714 14.3141 17.2268C14.3141 19.4821 15.2101 21.645 16.8048 23.2398C18.3996 24.8346 20.5625 25.7305 22.8178 25.7305C25.0732 25.7305 27.2361 24.8346 28.8309 23.2398C30.4256 21.645 31.3216 19.4821 31.3216 17.2268C31.3216 14.9714 30.4256 12.8085 28.8309 11.2137C27.2361 9.61897 25.0732 8.72305 22.8178 8.72305ZM17.1487 17.2268C17.1487 15.7232 17.746 14.2812 18.8092 13.2181C19.8723 12.1549 21.3143 11.5576 22.8178 11.5576C24.3214 11.5576 25.7634 12.1549 26.8265 13.2181C27.8897 14.2812 28.487 15.7232 28.487 17.2268C28.487 18.7303 27.8897 20.1723 26.8265 21.2355C25.7634 22.2986 24.3214 22.8959 22.8178 22.8959C21.3143 22.8959 19.8723 22.2986 18.8092 21.2355C17.746 20.1723 17.1487 18.7303 17.1487 17.2268ZM11.8594 41.1987C15.4446 40.3155 19.1255 39.8804 22.8178 39.9033C27.5487 39.9033 31.4491 40.5525 34.5246 41.3972C37.4726 42.205 39.6694 43.1943 41.1122 43.9709C41.7972 44.3375 42.4598 44.7445 43.0964 45.1898L43.1814 45.2522L43.1928 45.2635C43.4867 45.4981 43.8618 45.6063 44.2355 45.5643C44.6092 45.5223 44.9509 45.3335 45.1855 45.0396C45.42 44.7456 45.5282 44.3706 45.4862 43.9969C45.4442 43.6232 45.2555 43.2814 44.9615 43.0469L44.9559 43.0412L44.9417 43.0327L44.9048 43.0044L44.7716 42.9052C44.0284 42.3815 43.2541 41.9034 42.4529 41.4737C40.1731 40.2712 37.7657 39.328 35.2758 38.6618C31.965 37.7547 27.8095 37.0688 22.8178 37.0688C18.223 37.0688 14.3368 37.6499 11.1649 38.452C8.46674 39.1131 5.856 40.0902 3.38685 41.3631C2.7044 41.7198 2.04028 42.1106 1.39698 42.5338C1.17232 42.6823 0.952068 42.8373 0.736528 42.9987L0.694009 43.0327L0.682671 43.0412L0.677001 43.0469C0.383057 43.2814 0.191494 43.6232 0.149499 43.9969C0.107504 44.3706 0.215682 44.7456 0.450236 45.0396C0.68479 45.3335 1.02651 45.5223 1.40021 45.5642C1.77391 45.6062 2.149 45.4981 2.44294 45.2635L2.45995 45.2493L2.55065 45.1813C3.24073 44.7003 3.96023 44.2629 4.70493 43.8717C6.97622 42.7022 9.37766 41.805 11.8594 41.1987ZM21.4006 32.8169V29.9823C21.4006 29.6064 21.5499 29.246 21.8157 28.9802C22.0815 28.7144 22.442 28.5651 22.8178 28.5651C23.1937 28.5651 23.5542 28.7144 23.82 28.9802C24.0858 29.246 24.2351 29.6064 24.2351 29.9823V32.8169C24.2351 33.1928 24.0858 33.5533 23.82 33.8191C23.5542 34.0849 23.1937 34.2342 22.8178 34.2342C22.442 34.2342 22.0815 34.0849 21.8157 33.8191C21.5499 33.5533 21.4006 33.1928 21.4006 32.8169ZM5.81041 18.644C5.81041 18.2682 5.95973 17.9077 6.22553 17.6419C6.49132 17.3761 6.85181 17.2268 7.2277 17.2268H10.0623C10.4382 17.2268 10.7987 17.3761 11.0644 17.6419C11.3302 17.9077 11.4796 18.2682 11.4796 18.644C11.4796 19.0199 11.3302 19.3804 11.0644 19.6462C10.7987 19.912 10.4382 20.0613 10.0623 20.0613H7.2277C6.85181 20.0613 6.49132 19.912 6.22553 19.6462C5.95973 19.3804 5.81041 19.0199 5.81041 18.644ZM35.5734 20.0613H38.408C38.7839 20.0613 39.1444 19.912 39.4102 19.6462C39.676 19.3804 39.8253 19.0199 39.8253 18.644C39.8253 18.2682 39.676 17.9077 39.4102 17.6419C39.1444 17.3761 38.7839 17.2268 38.408 17.2268H35.5734C35.1975 17.2268 34.837 17.3761 34.5712 17.6419C34.3055 17.9077 34.1561 18.2682 34.1561 18.644C34.1561 19.0199 34.3055 19.3804 34.5712 19.6462C34.837 19.912 35.1975 20.0613 35.5734 20.0613ZM13.9003 11.1438C13.7686 11.2758 13.6122 11.3805 13.44 11.4519C13.2679 11.5234 13.0833 11.5602 12.8968 11.5602C12.7104 11.5602 12.5258 11.5234 12.3536 11.4519C12.1815 11.3805 12.0251 11.2758 11.8934 11.1438L9.05883 8.3092C8.92724 8.17743 8.8229 8.02102 8.75176 7.84892C8.68061 7.67683 8.64406 7.4924 8.6442 7.30617C8.64433 7.11995 8.68114 6.93558 8.75252 6.76358C8.82391 6.59158 8.92848 6.43533 9.06025 6.30374C9.19202 6.17215 9.34842 6.06781 9.52052 5.99666C9.69262 5.92552 9.87705 5.88897 10.0633 5.8891C10.2495 5.88923 10.4339 5.92604 10.6059 5.99743C10.7779 6.06882 10.9341 6.17338 11.0657 6.30516L13.9003 9.13973C14.166 9.40551 14.3152 9.76594 14.3152 10.1418C14.3152 10.5176 14.166 10.878 13.9003 11.1438ZM11.8934 26.1443C12.0252 26.0126 12.1816 25.908 12.3538 25.8367C12.526 25.7654 12.7105 25.7287 12.8968 25.7287C13.0832 25.7287 13.2677 25.7654 13.4399 25.8367C13.6121 25.908 13.7685 26.0126 13.9003 26.1443C14.0321 26.2761 14.1366 26.4325 14.2079 26.6047C14.2792 26.7769 14.3159 26.9614 14.3159 27.1478C14.3159 27.3341 14.2792 27.5187 14.2079 27.6908C14.1366 27.863 14.0321 28.0194 13.9003 28.1512L11.0657 30.9858C10.8 31.2519 10.4394 31.4016 10.0633 31.4018C9.68718 31.4021 9.32638 31.2529 9.06025 30.9872C8.79412 30.7214 8.64446 30.3609 8.6442 29.9848C8.64393 29.6087 8.79308 29.2479 9.05883 28.9817L11.8934 26.1472V26.1443ZM31.7354 11.1438C31.8671 11.2758 32.0235 11.3805 32.1957 11.4519C32.3678 11.5234 32.5524 11.5602 32.7388 11.5602C32.9253 11.5602 33.1099 11.5234 33.282 11.4519C33.4542 11.3805 33.6106 11.2758 33.7423 11.1438L36.5769 8.3092C36.843 8.04307 36.9925 7.68212 36.9925 7.30576C36.9925 6.9294 36.843 6.56845 36.5769 6.30232C36.3107 6.03619 35.9498 5.88668 35.5734 5.88668C35.1971 5.88668 34.8361 6.03619 34.57 6.30232L31.7354 9.13689C31.6034 9.26855 31.4987 9.42495 31.4273 9.59713C31.3558 9.76932 31.319 9.95391 31.319 10.1403C31.319 10.3268 31.3558 10.5113 31.4273 10.6835C31.4987 10.8557 31.6034 11.0121 31.7354 11.1438ZM33.7423 26.1472C33.4765 25.881 33.1159 25.7314 32.7399 25.7311C32.3638 25.7308 32.003 25.88 31.7368 26.1457C31.4707 26.4115 31.321 26.7721 31.3208 27.1482C31.3205 27.5243 31.4697 27.8851 31.7354 28.1512L34.57 30.9858C34.8357 31.2519 35.1963 31.4016 35.5724 31.4018C35.9485 31.4021 36.3093 31.2529 36.5754 30.9872C36.8416 30.7214 36.9912 30.3609 36.9915 29.9848C36.9918 29.6087 36.8426 29.2479 36.5769 28.9817L33.7423 26.1472Z" fill="white"/>
</svg>
