<svg width="20" height="20" viewBox="0 0 20 20" fill="none" xmlns="http://www.w3.org/2000/svg">
<path d="M18.75 1.87282L13.7456 1.87284V0.627212C13.7456 0.2819 13.4659 0.00221252 13.1206 0.00221252C12.7753 0.00221252 12.4956 0.2819 12.4956 0.627212V1.87252H7.49563V0.627212C7.49563 0.2819 7.21594 0.00221252 6.87063 0.00221252C6.52531 0.00221252 6.24563 0.2819 6.24563 0.627212V1.87252H1.25C0.559687 1.87252 0 2.43221 0 3.12252V18.7475C0 19.4378 0.559687 19.9975 1.25 19.9975H18.75C19.4403 19.9975 20 19.4378 20 18.7475V3.12252C20 2.43251 19.4403 1.87282 18.75 1.87282ZM18.75 18.7475H1.25V3.12252H6.24563V3.75221C6.24563 4.09751 6.52531 4.37721 6.87063 4.37721C7.21594 4.37721 7.49563 4.09751 7.49563 3.75221V3.12284H12.4956V3.75252C12.4956 4.09784 12.7753 4.37752 13.1206 4.37752C13.4659 4.37752 13.7456 4.09784 13.7456 3.75252V3.12284H18.75V18.7475ZM14.375 9.99782H15.625C15.97 9.99782 16.25 9.71782 16.25 9.37282V8.12282C16.25 7.77782 15.97 7.49782 15.625 7.49782H14.375C14.03 7.49782 13.75 7.77782 13.75 8.12282V9.37282C13.75 9.71782 14.03 9.99782 14.375 9.99782ZM14.375 14.9975H15.625C15.97 14.9975 16.25 14.7178 16.25 14.3725V13.1225C16.25 12.7775 15.97 12.4975 15.625 12.4975H14.375C14.03 12.4975 13.75 12.7775 13.75 13.1225V14.3725C13.75 14.7181 14.03 14.9975 14.375 14.9975ZM10.625 12.4975H9.375C9.03 12.4975 8.75 12.7775 8.75 13.1225V14.3725C8.75 14.7178 9.03 14.9975 9.375 14.9975H10.625C10.97 14.9975 11.25 14.7178 11.25 14.3725V13.1225C11.25 12.7778 10.97 12.4975 10.625 12.4975ZM10.625 7.49782H9.375C9.03 7.49782 8.75 7.77782 8.75 8.12282V9.37282C8.75 9.71782 9.03 9.99782 9.375 9.99782H10.625C10.97 9.99782 11.25 9.71782 11.25 9.37282V8.12282C11.25 7.7775 10.97 7.49782 10.625 7.49782ZM5.625 7.49782H4.375C4.03 7.49782 3.75 7.77782 3.75 8.12282V9.37282C3.75 9.71782 4.03 9.99782 4.375 9.99782H5.625C5.97 9.99782 6.25 9.71782 6.25 9.37282V8.12282C6.25 7.7775 5.97 7.49782 5.625 7.49782ZM5.625 12.4975H4.375C4.03 12.4975 3.75 12.7775 3.75 13.1225V14.3725C3.75 14.7178 4.03 14.9975 4.375 14.9975H5.625C5.97 14.9975 6.25 14.7178 6.25 14.3725V13.1225C6.25 12.7778 5.97 12.4975 5.625 12.4975Z" fill="#444444"/>
</svg>
